<?xml version="1.0" ?><svg viewBox="0 0 64 64" xmlns="http://www.w3.org/2000/svg"><title/><g id="File"><path d="M55,2H23c-.02,0-.0369.01-.0562.0112a.9771.9771,0,0,0-.2686.0534c-.03.01-.0588.0183-.0875.0314a.9932.9932,0,0,0-.2947.197l-14,14a.9863.9863,0,0,0-.1956.2925.9514.9514,0,0,0-.0338.0947.9835.9835,0,0,0-.0511.2569C8.0111,16.9587,8,16.9781,8,17V61a1,1,0,0,0,1,1H55a1,1,0,0,0,1-1V3A1,1,0,0,0,55,2ZM22,5.4141V16H11.4141ZM54,60H10V18H23a1,1,0,0,0,1-1V4H54Z"/><path d="M44,43H20a1,1,0,0,0,0,2H44a1,1,0,0,0,0-2Z"/><path d="M24,30a1,1,0,0,0,1,1H44a1,1,0,0,0,0-2H25A1,1,0,0,0,24,30Z"/></g></svg>