<?xml version="1.0" ?><svg viewBox="0 0 64 64" xmlns="http://www.w3.org/2000/svg"><title/><g id="Folder"><path d="M61,18H59V10a1,1,0,0,0-1-1H27.7187l-.7441-3.2246A1,1,0,0,0,26,5H3A1,1,0,0,0,2,6V58a1,1,0,0,0,1,1H61a1,1,0,0,0,1-1V19A1,1,0,0,0,61,18Zm-4-7v7H29.8022l-1.5556-7Zm3,46H4V7H25.2046l2.8208,12.2246a.9709.9709,0,0,0,.0825.1968,1.051,1.051,0,0,0,.0473.1131.98.98,0,0,0,.132.1479.5218.5218,0,0,0,.2708.2A.6945.6945,0,0,0,29,20H60Z"/><path d="M47,37H17a1,1,0,0,0,0,2H47a1,1,0,0,0,0-2Z"/></g></svg>