<?xml version="1.0" ?><svg viewBox="0 0 64 64" xmlns="http://www.w3.org/2000/svg"><title/><g id="Barbell"><path d="M62,28H58V20a2,2,0,0,0-2-2H52a2,2,0,0,0-2,2v8H46V24a2,2,0,0,0-2-2H42a2,2,0,0,0-2,2v4H24V24a2,2,0,0,0-2-2H20a2,2,0,0,0-2,2v4H14V20a2,2,0,0,0-2-2H8a2,2,0,0,0-2,2v8H2a1,1,0,0,0-1,1v6a1,1,0,0,0,1,1H6v8a2,2,0,0,0,2,2h4a2,2,0,0,0,2-2V36h4v4a2,2,0,0,0,2,2h2a2,2,0,0,0,2-2V36H40v4a2,2,0,0,0,2,2h2a2,2,0,0,0,2-2V36h4v8a2,2,0,0,0,2,2h4a2,2,0,0,0,2-2V36h4a1,1,0,0,0,1-1V29A1,1,0,0,0,62,28ZM12,44H8V20h4ZM22,40H20V24h2ZM44,40H42V24h2ZM56,44H52V20h4Z"/></g></svg>